<?xml version="1.0" encoding="utf-8"?>
<!-- Generator: Adobe Illustrator 27.6.1, SVG Export Plug-In . SVG Version: 6.00 Build 0)  -->
<svg version="1.1" id="Capa_1" xmlns="http://www.w3.org/2000/svg" xmlns:xlink="http://www.w3.org/1999/xlink" x="0px" y="0px"
	 viewBox="0 0 16 13.3" style="enable-background:new 0 0 16 13.3;" xml:space="preserve">
<style type="text/css">
	.st0{fill:#40596B;}
	.st1{fill:#D6E0EB;}
	.st2{fill:#E74E3A;}
	.st3{fill:#B0B6BC;}
	.st4{fill:#FF7058;}
</style>
<g transform="translate(1.4065934065934016 1.4065934065934016) scale(2.81 2.81)">
	<path class="st0" d="M0.1,1.1v2.9c0,0.1,0.1,0.2,0.2,0.2h4.2c0.1,0,0.2-0.1,0.2-0.2V1.1V0.3c0-0.1-0.1-0.2-0.2-0.2H0.2
		c-0.1,0-0.2,0.1-0.2,0.2V1.1z"/>
	<path class="st1" d="M3.9,1.7H3c-0.1,0-0.1,0.1-0.1,0.1V4H4V1.9C4,1.8,4,1.7,3.9,1.7z"/>
	<path class="st1" d="M2.1,3.3H0.8c-0.1,0-0.1-0.1-0.1-0.1V1.9c0-0.1,0.1-0.1,0.1-0.1h1.3c0.1,0,0.1,0.1,0.1,0.1v1.3
		C2.2,3.3,2.2,3.3,2.1,3.3z"/>
	<path class="st2" d="M0.1,1.1L0.1,1.1c-0.3,0-0.6-0.2-0.6-0.6V0.4c0.3-0.1,0.7-0.1,1.1,0v0.2C0.6,0.9,0.4,1.1,0.1,1.1z"/>
	<path class="st3" d="M1.2,1.1L1.2,1.1c-0.3,0-0.6-0.2-0.6-0.6V0.4c0.4-0.1,0.8-0.1,1.1,0v0.2C1.8,0.9,1.5,1.1,1.2,1.1z"/>
	<path class="st2" d="M4.6,1.1L4.6,1.1c0.3,0,0.6-0.2,0.6-0.6V0.4c-0.4-0.1-0.7-0.1-1.1,0v0.2C4.1,0.9,4.3,1.1,4.6,1.1z"/>
	<path class="st3" d="M3.5,1.1L3.5,1.1c0.3,0,0.6-0.2,0.6-0.6V0.4c-0.4-0.2-0.8-0.2-1.1,0v0.2C2.9,0.9,3.2,1.1,3.5,1.1z"/>
	<path class="st1" d="M1.8,0.4c0.1-0.3,0.1-0.5,0-0.9H1C0.8-0.2,0.6,0.1,0.6,0.4H1.8z"/>
	<polygon class="st4" points="-0.5,0.4 0.2,-0.5 1,-0.5 0.6,0.4 	"/>
	<path class="st1" d="M2.9,0.4c-0.1-0.3-0.1-0.6,0-0.9h0.8C4-0.2,4.1,0.1,4.1,0.4H2.9z"/>
	<polygon class="st4" points="5.2,0.4 4.5,-0.5 3.7,-0.5 4.1,0.4 	"/>
	<path class="st2" d="M2.4,1.1L2.4,1.1C2,1.1,1.8,0.9,1.8,0.6V0.4c0.4-0.2,0.8-0.2,1.1,0v0.2C2.9,0.9,2.7,1.1,2.4,1.1z"/>
	<polygon class="st4" points="1.8,-0.5 2.5,-0.5 2.9,-0.5 2.9,0.4 1.8,0.4 	"/>
</g>
</svg>
